<svg width="150" height="150" viewBox="0 0 150 150" fill="none" xmlns="http://www.w3.org/2000/svg">
<g clip-path="url(#clip0)">
<g filter="url(#filter0_ii)">
<path d="M4.99999 10.6468L4.99999 64.4002C4.99999 67.7139 7.68967 70.3755 10.9906 70.6664C42.4775 73.441 76.3697 97.8008 79.39 138.992C79.6323 142.297 82.2941 145 85.6078 145H139.365C142.487 145 145.045 142.624 144.982 139.502C144.696 125.148 140.539 85.0813 105.721 48.0202C69.4573 9.42155 25.7104 5.22175 10.5154 5.00918C7.39488 4.96552 4.99999 7.52599 4.99999 10.6468Z" fill="#FE000B"/>
</g>
<g filter="url(#filter1_iif)">
<path d="M4.99999 10.6468L4.99999 64.4002C4.99999 67.7139 7.68967 70.3755 10.9906 70.6664C42.4775 73.441 76.3697 97.8008 79.39 138.992C79.6323 142.297 82.2941 145 85.6078 145H139.365C142.487 145 145.045 142.624 144.982 139.502C144.696 125.148 140.539 85.0813 105.721 48.0202C69.4573 9.42155 25.7104 5.22175 10.5154 5.00918C7.39488 4.96552 4.99999 7.52599 4.99999 10.6468Z" fill="#FE000B"/>
</g>
</g>
<defs>
<filter id="filter0_ii" x="1" y="1.00862" width="147.984" height="147.991" filterUnits="userSpaceOnUse" color-interpolation-filters="sRGB">
<feFlood flood-opacity="0" result="BackgroundImageFix"/>
<feBlend mode="normal" in="SourceGraphic" in2="BackgroundImageFix" result="shape"/>
<feColorMatrix in="SourceAlpha" type="matrix" values="0 0 0 0 0 0 0 0 0 0 0 0 0 0 0 0 0 0 127 0" result="hardAlpha"/>
<feOffset dx="-4" dy="-4"/>
<feGaussianBlur stdDeviation="4"/>
<feComposite in2="hardAlpha" operator="arithmetic" k2="-1" k3="1"/>
<feColorMatrix type="matrix" values="0 0 0 0 0.112163 0 0 0 0 0.115039 0 0 0 0 0.113122 0 0 0 0.5 0"/>
<feBlend mode="normal" in2="shape" result="effect1_innerShadow"/>
<feColorMatrix in="SourceAlpha" type="matrix" values="0 0 0 0 0 0 0 0 0 0 0 0 0 0 0 0 0 0 127 0" result="hardAlpha"/>
<feOffset dx="4" dy="4"/>
<feGaussianBlur stdDeviation="4"/>
<feComposite in2="hardAlpha" operator="arithmetic" k2="-1" k3="1"/>
<feColorMatrix type="matrix" values="0 0 0 0 0.113725 0 0 0 0 0.113725 0 0 0 0 0.113725 0 0 0 0.5 0"/>
<feBlend mode="normal" in2="effect1_innerShadow" result="effect2_innerShadow"/>
</filter>
<filter id="filter1_iif" x="-3" y="-2.99138" width="155.984" height="155.991" filterUnits="userSpaceOnUse" color-interpolation-filters="sRGB">
<feFlood flood-opacity="0" result="BackgroundImageFix"/>
<feBlend mode="normal" in="SourceGraphic" in2="BackgroundImageFix" result="shape"/>
<feColorMatrix in="SourceAlpha" type="matrix" values="0 0 0 0 0 0 0 0 0 0 0 0 0 0 0 0 0 0 127 0" result="hardAlpha"/>
<feOffset dx="-4" dy="-4"/>
<feGaussianBlur stdDeviation="4"/>
<feComposite in2="hardAlpha" operator="arithmetic" k2="-1" k3="1"/>
<feColorMatrix type="matrix" values="0 0 0 0 0.112163 0 0 0 0 0.115039 0 0 0 0 0.113122 0 0 0 0.5 0"/>
<feBlend mode="normal" in2="shape" result="effect1_innerShadow"/>
<feColorMatrix in="SourceAlpha" type="matrix" values="0 0 0 0 0 0 0 0 0 0 0 0 0 0 0 0 0 0 127 0" result="hardAlpha"/>
<feOffset dx="4" dy="4"/>
<feGaussianBlur stdDeviation="4"/>
<feComposite in2="hardAlpha" operator="arithmetic" k2="-1" k3="1"/>
<feColorMatrix type="matrix" values="0 0 0 0 0.113725 0 0 0 0 0.113725 0 0 0 0 0.113725 0 0 0 0.5 0"/>
<feBlend mode="normal" in2="effect1_innerShadow" result="effect2_innerShadow"/>
<feGaussianBlur stdDeviation="4" result="effect3_foregroundBlur"/>
</filter>
<clipPath id="clip0">
<rect width="150" height="150" fill="white"/>
</clipPath>
</defs>
</svg>
