<svg width="150" height="150" viewBox="0 0 150 150" fill="none" xmlns="http://www.w3.org/2000/svg">
<g clip-path="url(#clip0)">
<g filter="url(#filter0_ii)">
<path d="M139.353 4.99999L85.5998 4.99999C82.2861 4.99999 79.6245 7.68967 79.3336 10.9906C76.559 42.4775 52.1992 76.3697 11.0076 79.39C7.70278 79.6323 5 82.2941 5 85.6078L5 139.365C5 142.487 7.3761 145.045 10.4977 144.982C24.8519 144.696 64.9187 140.539 101.98 105.721C140.578 69.4573 144.778 25.7104 144.991 10.5154C145.034 7.39488 142.474 4.99999 139.353 4.99999Z" fill="#007DFE"/>
</g>
<g filter="url(#filter1_iif)">
<path d="M139.353 4.99999L85.5998 4.99999C82.2861 4.99999 79.6245 7.68967 79.3336 10.9906C76.559 42.4775 52.1992 76.3697 11.0076 79.39C7.70278 79.6323 5 82.2941 5 85.6078L5 139.365C5 142.487 7.3761 145.045 10.4977 144.982C24.8519 144.696 64.9187 140.539 101.98 105.721C140.578 69.4573 144.778 25.7104 144.991 10.5154C145.034 7.39488 142.474 4.99999 139.353 4.99999Z" fill="#007DFE"/>
</g>
</g>
<defs>
<filter id="filter0_ii" x="1" y="1" width="147.991" height="147.984" filterUnits="userSpaceOnUse" color-interpolation-filters="sRGB">
<feFlood flood-opacity="0" result="BackgroundImageFix"/>
<feBlend mode="normal" in="SourceGraphic" in2="BackgroundImageFix" result="shape"/>
<feColorMatrix in="SourceAlpha" type="matrix" values="0 0 0 0 0 0 0 0 0 0 0 0 0 0 0 0 0 0 127 0" result="hardAlpha"/>
<feOffset dx="-4" dy="-4"/>
<feGaussianBlur stdDeviation="4"/>
<feComposite in2="hardAlpha" operator="arithmetic" k2="-1" k3="1"/>
<feColorMatrix type="matrix" values="0 0 0 0 0.112163 0 0 0 0 0.115039 0 0 0 0 0.113122 0 0 0 0.5 0"/>
<feBlend mode="normal" in2="shape" result="effect1_innerShadow"/>
<feColorMatrix in="SourceAlpha" type="matrix" values="0 0 0 0 0 0 0 0 0 0 0 0 0 0 0 0 0 0 127 0" result="hardAlpha"/>
<feOffset dx="4" dy="4"/>
<feGaussianBlur stdDeviation="4"/>
<feComposite in2="hardAlpha" operator="arithmetic" k2="-1" k3="1"/>
<feColorMatrix type="matrix" values="0 0 0 0 0.113725 0 0 0 0 0.113725 0 0 0 0 0.113725 0 0 0 0.5 0"/>
<feBlend mode="normal" in2="effect1_innerShadow" result="effect2_innerShadow"/>
</filter>
<filter id="filter1_iif" x="-3" y="-3" width="155.991" height="155.984" filterUnits="userSpaceOnUse" color-interpolation-filters="sRGB">
<feFlood flood-opacity="0" result="BackgroundImageFix"/>
<feBlend mode="normal" in="SourceGraphic" in2="BackgroundImageFix" result="shape"/>
<feColorMatrix in="SourceAlpha" type="matrix" values="0 0 0 0 0 0 0 0 0 0 0 0 0 0 0 0 0 0 127 0" result="hardAlpha"/>
<feOffset dx="-4" dy="-4"/>
<feGaussianBlur stdDeviation="4"/>
<feComposite in2="hardAlpha" operator="arithmetic" k2="-1" k3="1"/>
<feColorMatrix type="matrix" values="0 0 0 0 0.112163 0 0 0 0 0.115039 0 0 0 0 0.113122 0 0 0 0.5 0"/>
<feBlend mode="normal" in2="shape" result="effect1_innerShadow"/>
<feColorMatrix in="SourceAlpha" type="matrix" values="0 0 0 0 0 0 0 0 0 0 0 0 0 0 0 0 0 0 127 0" result="hardAlpha"/>
<feOffset dx="4" dy="4"/>
<feGaussianBlur stdDeviation="4"/>
<feComposite in2="hardAlpha" operator="arithmetic" k2="-1" k3="1"/>
<feColorMatrix type="matrix" values="0 0 0 0 0.113725 0 0 0 0 0.113725 0 0 0 0 0.113725 0 0 0 0.5 0"/>
<feBlend mode="normal" in2="effect1_innerShadow" result="effect2_innerShadow"/>
<feGaussianBlur stdDeviation="4" result="effect3_foregroundBlur"/>
</filter>
<clipPath id="clip0">
<rect width="150" height="150" fill="white"/>
</clipPath>
</defs>
</svg>
